<?xml version="1.0" encoding="utf-8"?>
<svg width="46px" height="46px" viewBox="0 0 46 46" version="1.1" xmlns="http://www.w3.org/2000/svg">
  <title>btn_google_light_normal_ios</title>
  <desc>Created with Sketch.</desc>
  <defs>
    <filter x="-50%" y="-50%" width="200%" height="200%" filterUnits="objectBoundingBox" id="filter-1">
      <feOffset dx="0" dy="1" in="SourceAlpha" result="shadowOffsetOuter1"/>
      <feGaussianBlur stdDeviation="0.5" in="shadowOffsetOuter1" result="shadowBlurOuter1"/>
      <feColorMatrix values="0 0 0 0 0   0 0 0 0 0   0 0 0 0 0  0 0 0 0.168 0" in="shadowBlurOuter1" type="matrix" result="shadowMatrixOuter1"/>
      <feOffset dx="0" dy="0" in="SourceAlpha" result="shadowOffsetOuter2"/>
      <feGaussianBlur stdDeviation="0.5" in="shadowOffsetOuter2" result="shadowBlurOuter2"/>
      <feColorMatrix values="0 0 0 0 0   0 0 0 0 0   0 0 0 0 0  0 0 0 0.084 0" in="shadowBlurOuter2" type="matrix" result="shadowMatrixOuter2"/>
      <feMerge>
        <feMergeNode in="shadowMatrixOuter1"/>
        <feMergeNode in="shadowMatrixOuter2"/>
        <feMergeNode in="SourceGraphic"/>
      </feMerge>
    </filter>
    <rect id="path-2" x="0" y="0" width="40" height="40" rx="2"/>
  </defs>
  <g id="Google-Button" stroke="none" stroke-width="1" fill="none" fill-rule="evenodd">
    <g id="9-PATCH" transform="translate(-608.000000, -160.000000)"/>
    <g id="btn_google_light_normal" transform="translate(-1.000000, -1.000000)">
      <g id="button" transform="translate(4.000000, 4.000000)" filter="url(#filter-1)">
        <g id="button-bg">
          <rect x="0" y="0" width="40" height="40" rx="2" transform="matrix(1, 0, 0, 1, 0, 0)" fill="#FFFFFF" fill-rule="evenodd"/>
          <rect x="0" y="0" width="40" height="40" rx="2" transform="matrix(1, 0, 0, 1, 0, 0)" fill="none"/>
          <rect x="0" y="0" width="40" height="40" rx="2" transform="matrix(1, 0, 0, 1, 0, 0)" fill="none"/>
          <rect x="0" y="0" width="40" height="40" rx="2" transform="matrix(1, 0, 0, 1, 0, 0)" fill="none"/>
        </g>
      </g>
      <g id="logo_googleg_48dp" transform="translate(15.000000, 15.000000)">
        <path d="M0,0 L18,0 L18,18 L0,18 L0,0 Z" id="Shape"/>
        <rect x="1.5" y="1.499" width="7.106" height="7.106" fill="#f25022"/>
        <rect x="1.5" y="9.395" width="7.106" height="7.106" fill="#00a4ef"/>
        <rect x="9.394" y="1.499" width="7.106" height="7.106" fill="#7fba00"/>
        <rect x="9.394" y="9.395" width="7.106" height="7.106" fill="#ffb900"/>
      </g>
      <g id="handles_square"/>
    </g>
  </g>
</svg>